
<svg width="19px" height="19px" viewBox="0 0 19 19" version="1.1" xmlns="http://www.w3.org/2000/svg" xmlns:xlink="http://www.w3.org/1999/xlink">
    <defs></defs>
    <g id="Page-1" stroke="none" stroke-width="1" fill="none" fill-rule="evenodd">
        <g id="icon-heart" transform="translate(1.000000, 1.000000)" fill="#000000" fill-rule="nonzero">
            <path d="M11.9,-0.3 C15.2522847,-0.3 17.9,2.34771525 17.9,5.7 C17.9,7.36201287 17.2822265,8.80348431 16.1071068,10.1071068 L9.20710678,17.0071068 C8.81658249,17.3976311 8.18341751,17.3976311 7.79289322,17.0071068 L0.892893219,10.1071068 C-0.229136371,8.98507719 -0.9,7.41972872 -0.9,5.8 C-0.9,2.44771525 1.74771525,-0.2 5.1,-0.2 C6.30446708,-0.2 7.46452655,0.160042872 8.39494011,0.801235494 C9.39458736,0.0921116885 10.6380567,-0.3 11.9,-0.3 Z M8.5001007,14.8858871 L14.6567059,8.73103527 C15.4814098,7.81469751 15.9,6.83798713 15.9,5.7 C15.9,3.45228475 14.1477153,1.7 11.9,1.7 C10.8413417,1.7 9.80333653,2.11087703 9.10710678,2.80710678 C8.71658249,3.19763107 8.08341751,3.19763107 7.69289322,2.80710678 C7.06695356,2.18116712 6.11403575,1.8 5.1,1.8 C2.85228475,1.8 1.1,3.55228475 1.1,5.8 C1.1,6.88027128 1.55413637,7.93992281 2.30710678,8.69289322 L8.5001007,14.8858871 Z" id="Shape"></path>
        </g>
    </g>
</svg>