
<svg width="21px" height="21px" viewBox="0 0 21 21" version="1.1" xmlns="http://www.w3.org/2000/svg" xmlns:xlink="http://www.w3.org/1999/xlink">
    <defs></defs>
    <g id="Page-1" stroke="none" stroke-width="1" fill="none" fill-rule="evenodd">
        <g id="icon-check" fill="#000000" fill-rule="nonzero">
            <path d="M2.5,5.5 L2.5,18.5 L15.5,18.5 L15.5,5.5 L2.5,5.5 Z M17.5,3.5 L17.5,20.5 L0.5,20.5 L0.5,3.5 L17.5,3.5 Z" id="Rectangle-path"></path>
            <path d="M9.43280165,12.0185881 L18.7317787,0.8598156 C19.0853428,0.435538703 19.7159075,0.378214639 20.1401844,0.73177872 C20.5644613,1.0853428 20.6217854,1.7159075 20.2682213,2.1401844 L10.2682213,14.1401844 C9.89177278,14.5919226 9.20869418,14.6229077 8.79289322,14.2071068 L4.79289322,10.2071068 C4.40236893,9.81658249 4.40236893,9.18341751 4.79289322,8.79289322 C5.18341751,8.40236893 5.81658249,8.40236893 6.20710678,8.79289322 L9.43280165,12.0185881 Z" id="Shape"></path>
        </g>
    </g>
</svg>