
<svg width="21px" height="19px" viewBox="0 0 21 19" version="1.1" xmlns="http://www.w3.org/2000/svg" xmlns:xlink="http://www.w3.org/1999/xlink">
    <defs></defs>
    <g id="Page-1" stroke="none" stroke-width="1" fill="none" fill-rule="evenodd">
        <g id="icon-star" transform="translate(1.000000, 1.000000)" fill="#000000" fill-rule="nonzero">
            <path d="M9.5,2.36925536 L7.69766761,6.04067319 C7.55264037,6.33609905 7.27154013,6.54125408 6.94596087,6.58929036 L2.8417421,7.19483084 L5.79893295,10.0848128 C6.03213423,10.312714 6.13957769,10.6399999 6.08682767,10.961775 L5.41521723,15.0585987 L9.02687336,13.1190056 C9.32233547,12.9603315 9.67766453,12.9603315 9.97312664,13.1190056 L13.5847828,15.0585987 L12.9131723,10.961775 C12.8604223,10.6399999 12.9678658,10.312714 13.2010671,10.0848128 L16.1582579,7.19483084 L12.0540391,6.58929036 C11.7284599,6.54125408 11.4473596,6.33609905 11.3023324,6.04067319 L9.5,2.36925536 Z M6.13398655,4.68743871 L8.60233239,-0.340673191 C8.96843721,-1.08644227 10.0315628,-1.08644227 10.3976676,-0.340673191 L12.8660135,4.68743871 L18.4459609,5.51070964 C19.2643318,5.63145289 19.5905575,6.6370087 18.9989329,7.2151872 L14.9709859,11.15159 L15.8868277,16.738225 C16.0210204,17.5568008 15.1576602,18.1734541 14.4268734,17.7809944 L9.5,15.135081 L4.57312664,17.7809944 C3.84233975,18.1734541 2.97897958,17.5568008 3.11317233,16.738225 L4.02901413,11.15159 L0.0010670522,7.2151872 C-0.590557467,6.6370087 -0.264331831,5.63145289 0.554039127,5.51070964 L6.13398655,4.68743871 Z" id="Shape"></path>
        </g>
    </g>
</svg>