
<svg width="20px" height="20px" viewBox="0 0 20 20" version="1.1" xmlns="http://www.w3.org/2000/svg" xmlns:xlink="http://www.w3.org/1999/xlink">
    <defs></defs>
    <g id="Page-1" stroke="none" stroke-width="1" fill="none" fill-rule="evenodd">
        <g id="icon-launch" fill="#000000" fill-rule="nonzero">
            <path d="M14.5,17.5 L14.5,10.5 C14.5,9.94771525 14.9477153,9.5 15.5,9.5 C16.0522847,9.5 16.5,9.94771525 16.5,10.5 L16.5,19.5 L0.5,19.5 L0.5,3.5 L9.5,3.5 C10.0522847,3.5 10.5,3.94771525 10.5,4.5 C10.5,5.05228475 10.0522847,5.5 9.5,5.5 L2.5,5.5 L2.5,17.5 L14.5,17.5 Z" id="Shape"></path>
            <path d="M7.20710678,14.2071068 C6.81658249,14.5976311 6.18341751,14.5976311 5.79289322,14.2071068 C5.40236893,13.8165825 5.40236893,13.1834175 5.79289322,12.7928932 L17.7928932,0.792893219 C18.1834175,0.402368927 18.8165825,0.402368927 19.2071068,0.792893219 C19.5976311,1.18341751 19.5976311,1.81658249 19.2071068,2.20710678 L7.20710678,14.2071068 Z" id="Shape"></path>
            <path d="M17.5,2.5 L11.5,2.5 C10.9477153,2.5 10.5,2.05228475 10.5,1.5 C10.5,0.94771525 10.9477153,0.5 11.5,0.5 L18.5,0.5 C19.0522847,0.5 19.5,0.94771525 19.5,1.5 L19.5,8.5 C19.5,9.05228475 19.0522847,9.5 18.5,9.5 C17.9477153,9.5 17.5,9.05228475 17.5,8.5 L17.5,2.5 Z" id="Shape"></path>
        </g>
    </g>
</svg>