
<svg width="21px" height="15px" viewBox="0 0 21 15" version="1.1" xmlns="http://www.w3.org/2000/svg" xmlns:xlink="http://www.w3.org/1999/xlink">
    <defs></defs>
    <g id="Page-1" stroke="none" stroke-width="1" fill="none" fill-rule="evenodd">
        <g id="icon-dash" fill="#000000" fill-rule="nonzero">
            <path d="M10.5,0.5 C16,0.5 20.5,5 20.4,10.5 C20.4,11.9 20.1,13.3 19.6,14.5 L1.3,14.5 C0.8,13.3 0.5,11.9 0.5,10.5 C0.5,5 5,0.5 10.5,0.5 Z M10.5,2.5 C6.1,2.5 2.5,6.1 2.5,10.5 C2.5,11.2 2.6,11.8 2.8,12.5 L18.2,12.5 C18.4,11.8 18.5,11.2 18.5,10.5 C18.5,6.1 14.9,2.5 10.5,2.5 Z M9.803536,8.54857759 L11.5715233,4.12860932 L13.4284767,4.87139068 L11.8972348,8.69949539 C13.9740612,9.30708507 15.5,11.2322704 15.5,13.5 L13.5,13.5 C13.5,11.8522847 12.1477153,10.5 10.5,10.5 C8.85228475,10.5 7.5,11.8522847 7.5,13.5 L5.5,13.5 C5.5,10.9839548 7.37841461,8.88957802 9.803536,8.54857759 Z" id="Shape"></path>
        </g>
    </g>
</svg>