
<svg width="21px" height="21px" viewBox="0 0 21 21" version="1.1" xmlns="http://www.w3.org/2000/svg" xmlns:xlink="http://www.w3.org/1999/xlink">
    <defs></defs>
    <g id="Page-1" stroke="none" stroke-width="1" fill="none" fill-rule="evenodd">
        <g id="icon-ring" fill="#000000" fill-rule="nonzero">
            <path d="M10.5,0.5 C16,0.5 20.5,5 20.5,10.5 C20.5,16 16,20.5 10.5,20.5 C5,20.5 0.5,16 0.5,10.5 C0.5,5 5,0.5 10.5,0.5 Z M10.5,2.5 C6.1,2.5 2.5,6.1 2.5,10.5 C2.5,14.9 6.1,18.5 10.5,18.5 C14.9,18.5 18.5,14.9 18.5,10.5 C18.5,6.1 14.9,2.5 10.5,2.5 Z M8.16933274,6.75511918 C8.83786382,6.34063077 9.63283729,6.1 10.5,6.1 C11.3671627,6.1 12.1621362,6.34063077 12.8306673,6.75511918 L16.4928932,3.09289322 L17.9071068,4.50710678 L14.2427152,8.1714984 C14.6616515,8.85009368 14.9,9.64995753 14.9,10.5 C14.9,11.3438319 14.6527596,12.1382157 14.227822,12.8136084 L17.9071068,16.4928932 L16.4928932,17.9071068 L12.8136084,14.227822 C12.1382157,14.6527596 11.3438319,14.9 10.5,14.9 C9.65616809,14.9 8.86178425,14.6527596 8.1863916,14.227822 L4.50710678,17.9071068 L3.09289322,16.4928932 L6.77217804,12.8136084 C6.34724038,12.1382157 6.1,11.3438319 6.1,10.5 C6.1,9.64995753 6.33834847,8.85009368 6.75728484,8.1714984 L3.09289322,4.50710678 L4.50710678,3.09289322 L8.16933274,6.75511918 Z M10.5,8.1 C9.2,8.1 8.1,9.2 8.1,10.5 C8.1,11.8 9.2,12.9 10.5,12.9 C11.8,12.9 12.9,11.8 12.9,10.5 C12.9,9.2 11.8,8.1 10.5,8.1 Z" id="Shape"></path>
        </g>
    </g>
</svg>