
<svg width="17px" height="21px" viewBox="0 0 17 21" version="1.1" xmlns="http://www.w3.org/2000/svg" xmlns:xlink="http://www.w3.org/1999/xlink">
    <defs></defs>
    <g id="Page-1" stroke="none" stroke-width="1" fill="none" fill-rule="evenodd">
        <g id="icon-paper" fill="#121212" fill-rule="nonzero">
            <path d="M9.5,7 L15.5,7 C16.0522847,7 16.5,7.44771525 16.5,8 L16.5,20 C16.5,20.5522847 16.0522847,21 15.5,21 L1.5,21 C0.94771525,21 0.5,20.5522847 0.5,20 L0.5,1 C0.5,0.44771525 0.94771525,0 1.5,0 L8.5,0 C9.05228475,0 9.5,0.44771525 9.5,1 L9.5,7 Z M7.5,2 L2.5,2 L2.5,19 L14.5,19 L14.5,9 L8.5,9 C7.94771525,9 7.5,8.55228475 7.5,8 L7.5,2 Z M7.85765439,1.76748512 L9.27186795,0.353271557 L16.1958705,7.27683222 L14.781657,8.69104578 L7.85765439,1.76748512 Z" id="Shape"></path>
        </g>
    </g>
</svg>